# xmcd
#
# Track frame offsets:
#	187
#	9272
#	21165
#	34202
#	47387
#	57107
#	68985
#	79382
#	91260
#	102572
#	115277
#	124285
#	133815
#	148825
#	159472
#	169747
#	181510
#	194462
#	208675
#	221357
#	233555
#	246067
#	255965
#
# Disc length: 3539
#
# Revision: 2
# Processed by: cddbd v1.5.1PL0 Copyright (c) Steve Scherf et al.
# Submitted via: audiograbber 1.80
# Normalized: r1:DSETVAR1
#
DISCID=3b0dd117
DTITLE=Various Artist - Country Songs That Will Live Forever (Disc
DYEAR=1900
DGENRE=
TTITLE0=Patsy Cline - Anytime
TTITLE1=Eddy Arnold - I Love You So Much It Hurts
TTITLE2=Jim Reeves - Have I Told You Lately That I Love You
TTITLE3=Ernest Tubb - Slipping Around
TTITLE4=Jimmy C Newman - Sioux City Sue
TTITLE5=Don Gibson - One Has My Name The Other Has My Heart
TTITLE6=Elton Britt And The Skytoppers - Candy Kisses
TTITLE7=Eddy Arnold And His Tennessee Ploughboys - Bouquet Of Roses
TTITLE8=Patti Page - Walking The Floor Over You
TTITLE9=Ernest Tubb With The Andrew Sisters And The Texas Troubadours - Don't Rob Another Man's Castle
TTITLE10=Jerry Lee Lewis - Jambalaya (On The Bayou)
TTITLE11=Linda Ronstadt - Lovesick Blues
TTITLE12=Glen Campbell - Your Cheatin' Heart
TTITLE13=Willie Nelson - Heartaches By The Number
TTITLE14=Leroy Van Dyke - Young Love
TTITLE15=Charlie Walker - Pick Me Up On Your Way Down
TTITLE16=Tennessee Ernie Ford With Lou Busch And The Starlighters - Cincinnati Dancing Pig
TTITLE17=Ronnie Milsap With The Jordanaires - Four Walls
TTITLE18=Glen Campbell - Bonaparte's Retreat
TTITLE19=Elvis Presley With The Imperials Quartet - I Rally Don't Want To Know
TTITLE20=Linda Ronstadt - I Can't Help It (If I'm Still In Love With You)
TTITLE21=Hank Williams Jr - I Walk The Line
TTITLE22=Jerry Lee Lewis - Singing The Blues
EXTD=
EXTT0=
EXTT1=
EXTT2=
EXTT3=
EXTT4=
EXTT5=
EXTT6=
EXTT7=
EXTT8=
EXTT9=
EXTT10=
EXTT11=
EXTT12=
EXTT13=
EXTT14=
EXTT15=
EXTT16=
EXTT17=
EXTT18=
EXTT19=
EXTT20=
EXTT21=
EXTT22=
PLAYORDER=
